<svg id="Группа_4" data-name="Группа 4" xmlns="http://www.w3.org/2000/svg" xmlns:xlink="http://www.w3.org/1999/xlink" width="216.25" height="669.25" viewBox="0 0 216.25 669.25">
  <defs>
    <style>
      .cls-1, .cls-2, .cls-3 {
        fill: none;
      }

      .cls-1 {
        stroke: #ececec;
        stroke-width: 1px;
      }

      .cls-1, .cls-2, .cls-4, .cls-5, .cls-6, .cls-7, .cls-8 {
        fill-rule: evenodd;
      }

      .cls-2 {
        stroke: #fe3e57;
        filter: url(#filter);
      }

      .cls-2, .cls-3 {
        stroke-width: 2px;
      }

      .cls-3 {
        stroke: #34c3ff;
        filter: url(#filter-2);
      }

      .cls-4 {
        fill: #34c3ff;
        filter: url(#filter-3);
      }

      .cls-5 {
        fill: #5800e4;
        filter: url(#filter-4);
      }

      .cls-6, .cls-7 {
        fill: #ffb534;
      }

      .cls-6 {
        filter: url(#filter-5);
      }

      .cls-7 {
        filter: url(#filter-6);
      }

      .cls-8 {
        fill: #fe3e57;
        filter: url(#filter-7);
      }
    </style>
    <filter id="filter" x="86" y="1361" width="37" height="38" filterUnits="userSpaceOnUse">
      <feOffset result="offset" dy="3" in="SourceAlpha"/>
      <feGaussianBlur result="blur" stdDeviation="2.236"/>
      <feFlood result="flood" flood-color="#fe3e57" flood-opacity="0.4"/>
      <feComposite result="composite" operator="in" in2="blur"/>
      <feBlend result="blend" in="SourceGraphic"/>
    </filter>
    <filter id="filter-2" x="124" y="468.31" width="18" height="18" filterUnits="userSpaceOnUse">
      <feOffset result="offset" dy="3" in="SourceAlpha"/>
      <feGaussianBlur result="blur" stdDeviation="2.236"/>
      <feFlood result="flood" flood-color="#34c3ff" flood-opacity="0.4"/>
      <feComposite result="composite" operator="in" in2="blur"/>
      <feBlend result="blend" in="SourceGraphic"/>
    </filter>
    <filter id="filter-3" x="53" y="1274" width="19" height="19" filterUnits="userSpaceOnUse">
      <feOffset result="offset" dy="3" in="SourceAlpha"/>
      <feGaussianBlur result="blur" stdDeviation="2.236"/>
      <feFlood result="flood" flood-color="#34c3ff" flood-opacity="0.4"/>
      <feComposite result="composite" operator="in" in2="blur"/>
      <feBlend result="blend" in="SourceGraphic"/>
    </filter>
    <filter id="filter-4" x="49" y="1466" width="19" height="18" filterUnits="userSpaceOnUse">
      <feOffset result="offset" dy="3" in="SourceAlpha"/>
      <feGaussianBlur result="blur" stdDeviation="2.236"/>
      <feFlood result="flood" flood-color="#5800e4" flood-opacity="0.4"/>
      <feComposite result="composite" operator="in" in2="blur"/>
      <feBlend result="blend" in="SourceGraphic"/>
    </filter>
    <filter id="filter-5" x="178" y="1513" width="19" height="19" filterUnits="userSpaceOnUse">
      <feOffset result="offset" dy="3" in="SourceAlpha"/>
      <feGaussianBlur result="blur" stdDeviation="2.236"/>
      <feFlood result="flood" flood-color="#ffb534" flood-opacity="0.4"/>
      <feComposite result="composite" operator="in" in2="blur"/>
      <feBlend result="blend" in="SourceGraphic"/>
    </filter>
    <filter id="filter-6" x="183" y="1225" width="19" height="19" filterUnits="userSpaceOnUse">
      <feOffset result="offset" dy="3" in="SourceAlpha"/>
      <feGaussianBlur result="blur" stdDeviation="2.236"/>
      <feFlood result="flood" flood-color="#ffb534" flood-opacity="0.4"/>
      <feComposite result="composite" operator="in" in2="blur"/>
      <feBlend result="blend" in="SourceGraphic"/>
    </filter>
    <filter id="filter-7" x="72" y="1751" width="19" height="19" filterUnits="userSpaceOnUse">
      <feOffset result="offset" dy="3" in="SourceAlpha"/>
      <feGaussianBlur result="blur" stdDeviation="2.236"/>
      <feFlood result="flood" flood-color="#fe3e57" flood-opacity="0.4"/>
      <feComposite result="composite" operator="in" in2="blur"/>
      <feBlend result="blend" in="SourceGraphic"/>
    </filter>
  </defs>
  <path id="line_1_copy" data-name="line 1 copy" class="cls-1" d="M0.868,1719.24s31.342-103,48.792-141.31,41.34-67.48,82.8-99.2,61.012-103.82-8.132-190.9S4.093,1175.76-8,1167.11" transform="translate(0 -1150.69)"/>
  <path id="line_2_copy" data-name="line 2 copy" class="cls-1" d="M-1.35,1818.44s21.143,0.79,47.313-97.33,38.785-125.34,58.4-160.96,40.61-57.87,68.753-77.67,74.424-77.64,5.914-178.74S-13.255,1126.05-33.878,1160.55" transform="translate(0 -1150.69)"/>
  <g transform="translate(0 -1150.69)" style="fill: none; filter: url(#filter)">
    <path id="Ellipse_1_copy" data-name="Ellipse 1 copy" class="cls-2" d="M103.586,1362.71a13.876,13.876,0,1,1-13.478,13.87A13.679,13.679,0,0,1,103.586,1362.71Z" style="stroke: inherit; filter: none; fill: inherit"/>
  </g>
  <use transform="translate(0 -1150.69)" xlink:href="#Ellipse_1_copy" style="stroke: #fe3e57; filter: none; fill: none"/>
  <g style="fill: none; filter: url(#filter-2)">
    <circle id="Ellipse_2_copy" data-name="Ellipse 2 copy" class="cls-3" cx="132.594" cy="474" r="4.219" style="stroke: inherit; filter: none; fill: inherit"/>
  </g>
  <use xlink:href="#Ellipse_2_copy" style="stroke: #34c3ff; filter: none; fill: none"/>
  <path id="Shape_3_copy" data-name="Shape 3 copy" class="cls-4" d="M63.224,1279.78l2.92,3.05a0.987,0.987,0,0,1,0,1.35,0.887,0.887,0,0,1-1.289,0l-2.92-3.05-2.92,3.05a0.887,0.887,0,0,1-1.289,0h0a0.987,0.987,0,0,1,0-1.35l2.92-3.05-2.92-3.05a0.987,0.987,0,0,1,0-1.35h0a0.887,0.887,0,0,1,1.289,0l2.92,3.05,2.92-3.05a0.887,0.887,0,0,1,1.289,0h0a0.987,0.987,0,0,1,0,1.35Z" transform="translate(0 -1150.69)"/>
  <path id="Rectangle_519_copy" data-name="Rectangle 519 copy" class="cls-5" d="M57.786,1475.79l-4.352-4.36,4.352-4.36,4.352,4.36Z" transform="translate(0 -1150.69)"/>
  <path id="Shape_3_copy_4" data-name="Shape 3 copy 4" class="cls-6" d="M187.889,1519.27l2.919,3.05a0.987,0.987,0,0,1,0,1.35,0.886,0.886,0,0,1-1.288,0l-2.92-3.06-2.92,3.06a0.887,0.887,0,0,1-1.289,0h0a0.987,0.987,0,0,1,0-1.35l2.92-3.05-2.92-3.05a0.987,0.987,0,0,1,0-1.35h0a0.887,0.887,0,0,1,1.289,0l2.92,3.05,2.92-3.05a0.886,0.886,0,0,1,1.288,0h0a0.987,0.987,0,0,1,0,1.35Z" transform="translate(0 -1150.69)"/>
  <path id="Shape_3_copy_5" data-name="Shape 3 copy 5" class="cls-7" d="M192.889,1230.92l2.92,3.05a0.987,0.987,0,0,1,0,1.35,0.887,0.887,0,0,1-1.289,0l-2.92-3.06-2.919,3.06a0.887,0.887,0,0,1-1.289,0h0a0.987,0.987,0,0,1,0-1.35l2.919-3.05-2.919-3.05a0.987,0.987,0,0,1,0-1.35h0a0.887,0.887,0,0,1,1.289,0l2.919,3.05,2.92-3.05a0.887,0.887,0,0,1,1.289,0h0a0.987,0.987,0,0,1,0,1.35Z" transform="translate(0 -1150.69)"/>
  <path id="Shape_3_copy_4-2" data-name="Shape 3 copy 4" class="cls-8" d="M81.96,1757.1l2.92,3.05a0.987,0.987,0,0,1,0,1.35,0.887,0.887,0,0,1-1.289,0l-2.92-3.05-2.92,3.05a0.887,0.887,0,0,1-1.289,0h0a0.987,0.987,0,0,1,0-1.35l2.92-3.05-2.92-3.05a0.987,0.987,0,0,1,0-1.35h0a0.887,0.887,0,0,1,1.289,0l2.92,3.05,2.92-3.05a0.887,0.887,0,0,1,1.289,0h0a0.987,0.987,0,0,1,0,1.35Z" transform="translate(0 -1150.69)"/>
</svg>
